<svg xmlns="http://www.w3.org/2000/svg" width="31" height="28" viewBox="0 0 31 28" id="shopping"><g fill="none" fill-rule="evenodd"><g fill="#ffffff" transform="translate(-568 -513)"><path d="M594.749 536.065H577.565h-.002c-.352 0-.684-.137-.932-.387a1.314 1.314 0 0 1-.391-.939c0-.357.137-.686.387-.936a1.32 1.32 0 0 1 .939-.393H594.576a.563.563 0 0 0 .549-.428l3.779-15.117a.575.575 0 0 0-.102-.484.574.574 0 0 0-.445-.215h-24.16l-.814-3.24c-.016-.053-.066-.078-.092-.127-.037-.062-.062-.113-.119-.158-.062-.053-.131-.066-.207-.088-.047-.014-.078-.053-.129-.053h-3.775a.564.564 0 0 0-.561.562c0 .312.25.562.561.562h3.338l4.48 17.797c-.387.113-.754.289-1.049.584a2.432 2.432 0 0 0-.715 1.732c0 .658.256 1.273.721 1.736.066.066.154.096.229.154-.074.057-.166.086-.232.152a2.452 2.452 0 0 0 1.732 4.185h.006a2.442 2.442 0 0 0 2.449-2.447c0-.502-.188-.941-.445-1.328h13.166c-.262.395-.443.838-.443 1.328a2.451 2.451 0 0 0 2.449 2.447h.008a2.43 2.43 0 0 0 1.73-.717c.463-.465.717-1.08.717-1.73a2.454 2.454 0 0 0-2.453-2.452zm-.611-3.779h-16.129l-2.553-10.213h21.238l-2.556 10.213zm3.5-13.994l-.664 2.656h-21.801l-.664-2.656h23.129zm-18.742 20.228a1.322 1.322 0 0 1-1.324 1.323h-.008a1.327 1.327 0 1 1 1.332-1.323zm16.794.936c-.252.25-.586.387-.936.387h-.01a1.327 1.327 0 0 1-.937-2.264c.252-.25.588-.387.947-.387.729 0 1.322.594 1.322 1.328a1.31 1.31 0 0 1-.386.936z" fill="#ffffff000"/></g></g></svg>